<mxfile host="app.diagrams.net" modified="2022-03-29T07:24:32.808Z" agent="5.0 (Windows NT 10.0; Win64; x64) AppleWebKit/537.36 (KHTML, like Gecko) Chrome/99.0.4844.74 Safari/537.36 Edg/99.0.1150.52" etag="bdO0XfCl2fOqalApkyqe" version="17.2.4" type="github">
  <diagram name="Page-1" id="74e2e168-ea6b-b213-b513-2b3c1d86103e">
    <mxGraphModel dx="1955" dy="934" grid="1" gridSize="10" guides="1" tooltips="1" connect="1" arrows="1" fold="1" page="1" pageScale="1" pageWidth="1100" pageHeight="850" background="none" math="0" shadow="0">
      <root>
        <mxCell id="0" />
        <mxCell id="1" parent="0" />
        <mxCell id="77e6c97f196da883-1" value="회원가입" style="swimlane;html=1;childLayout=stackLayout;startSize=20;rounded=0;shadow=0;labelBackgroundColor=none;strokeWidth=1;fontFamily=Verdana;fontSize=8;align=center;" parent="1" vertex="1">
          <mxGeometry x="70" y="40" width="320" height="860" as="geometry" />
        </mxCell>
        <mxCell id="77e6c97f196da883-2" value="회원" style="swimlane;html=1;startSize=20;" parent="77e6c97f196da883-1" vertex="1">
          <mxGeometry y="20" width="160" height="840" as="geometry" />
        </mxCell>
        <mxCell id="pz1s1jrqG1b7pEJfz0OD-1" value="&lt;font style=&quot;font-size: 10px&quot;&gt;페이지 상단&lt;br&gt;회원가입링크 클릭&lt;/font&gt;" style="ellipse;whiteSpace=wrap;html=1;" vertex="1" parent="77e6c97f196da883-2">
          <mxGeometry x="30" y="30" width="100" height="60" as="geometry" />
        </mxCell>
        <mxCell id="pz1s1jrqG1b7pEJfz0OD-4" value="아이디, 비밀번호, 닉네임란 입력 후 확인" style="rounded=1;whiteSpace=wrap;html=1;shadow=0;labelBackgroundColor=none;strokeWidth=1;fontFamily=Verdana;fontSize=8;align=center;" vertex="1" parent="77e6c97f196da883-2">
          <mxGeometry x="30" y="180" width="100" height="60" as="geometry" />
        </mxCell>
        <mxCell id="pz1s1jrqG1b7pEJfz0OD-8" value="메인페이지 이동" style="ellipse;whiteSpace=wrap;html=1;fontSize=10;" vertex="1" parent="77e6c97f196da883-2">
          <mxGeometry x="30" y="590" width="100" height="60" as="geometry" />
        </mxCell>
        <mxCell id="77e6c97f196da883-3" value="웹" style="swimlane;html=1;startSize=20;" parent="77e6c97f196da883-1" vertex="1">
          <mxGeometry x="160" y="20" width="160" height="840" as="geometry" />
        </mxCell>
        <mxCell id="77e6c97f196da883-10" value="회원가입 페이지&lt;br&gt;이동" style="rounded=1;whiteSpace=wrap;html=1;shadow=0;labelBackgroundColor=none;strokeWidth=1;fontFamily=Verdana;fontSize=8;align=center;" parent="77e6c97f196da883-3" vertex="1">
          <mxGeometry x="30" y="100" width="100" height="60" as="geometry" />
        </mxCell>
        <mxCell id="pz1s1jrqG1b7pEJfz0OD-126" style="edgeStyle=orthogonalEdgeStyle;rounded=0;orthogonalLoop=1;jettySize=auto;html=1;exitX=0.5;exitY=1;exitDx=0;exitDy=0;entryX=0.5;entryY=0;entryDx=0;entryDy=0;fontSize=10;" edge="1" parent="77e6c97f196da883-3" source="pz1s1jrqG1b7pEJfz0OD-5" target="pz1s1jrqG1b7pEJfz0OD-13">
          <mxGeometry relative="1" as="geometry" />
        </mxCell>
        <mxCell id="pz1s1jrqG1b7pEJfz0OD-5" value="입력된 아이디, 비밀번호, 닉네임 데이터 저장" style="rounded=1;whiteSpace=wrap;html=1;shadow=0;labelBackgroundColor=none;strokeWidth=1;fontFamily=Verdana;fontSize=8;align=center;" vertex="1" parent="77e6c97f196da883-3">
          <mxGeometry x="30" y="270" width="100" height="60" as="geometry" />
        </mxCell>
        <mxCell id="pz1s1jrqG1b7pEJfz0OD-6" value="회원가입 완료 안내, 메인페이지 이동 링크" style="rounded=1;whiteSpace=wrap;html=1;shadow=0;labelBackgroundColor=none;strokeWidth=1;fontFamily=Verdana;fontSize=8;align=center;" vertex="1" parent="77e6c97f196da883-3">
          <mxGeometry x="30" y="480" width="100" height="60" as="geometry" />
        </mxCell>
        <mxCell id="pz1s1jrqG1b7pEJfz0OD-127" style="edgeStyle=orthogonalEdgeStyle;rounded=0;orthogonalLoop=1;jettySize=auto;html=1;exitX=0.5;exitY=1;exitDx=0;exitDy=0;entryX=0.5;entryY=0;entryDx=0;entryDy=0;fontSize=10;" edge="1" parent="77e6c97f196da883-3" source="pz1s1jrqG1b7pEJfz0OD-13" target="pz1s1jrqG1b7pEJfz0OD-6">
          <mxGeometry relative="1" as="geometry" />
        </mxCell>
        <mxCell id="pz1s1jrqG1b7pEJfz0OD-13" value="회원 빈 프로필 생성" style="rounded=1;whiteSpace=wrap;html=1;shadow=0;labelBackgroundColor=none;strokeWidth=1;fontFamily=Verdana;fontSize=8;align=center;" vertex="1" parent="77e6c97f196da883-3">
          <mxGeometry x="30" y="380" width="100" height="60" as="geometry" />
        </mxCell>
        <mxCell id="pz1s1jrqG1b7pEJfz0OD-123" style="edgeStyle=orthogonalEdgeStyle;rounded=0;orthogonalLoop=1;jettySize=auto;html=1;exitX=1;exitY=0.5;exitDx=0;exitDy=0;entryX=0.5;entryY=0;entryDx=0;entryDy=0;fontSize=10;" edge="1" parent="77e6c97f196da883-1" source="pz1s1jrqG1b7pEJfz0OD-1" target="77e6c97f196da883-10">
          <mxGeometry relative="1" as="geometry" />
        </mxCell>
        <mxCell id="pz1s1jrqG1b7pEJfz0OD-124" style="edgeStyle=orthogonalEdgeStyle;rounded=0;orthogonalLoop=1;jettySize=auto;html=1;exitX=0;exitY=0.5;exitDx=0;exitDy=0;entryX=0.5;entryY=0;entryDx=0;entryDy=0;fontSize=10;" edge="1" parent="77e6c97f196da883-1" source="77e6c97f196da883-10" target="pz1s1jrqG1b7pEJfz0OD-4">
          <mxGeometry relative="1" as="geometry" />
        </mxCell>
        <mxCell id="pz1s1jrqG1b7pEJfz0OD-125" style="edgeStyle=orthogonalEdgeStyle;rounded=0;orthogonalLoop=1;jettySize=auto;html=1;exitX=1;exitY=0.5;exitDx=0;exitDy=0;entryX=0.5;entryY=0;entryDx=0;entryDy=0;fontSize=10;" edge="1" parent="77e6c97f196da883-1" source="pz1s1jrqG1b7pEJfz0OD-4" target="pz1s1jrqG1b7pEJfz0OD-5">
          <mxGeometry relative="1" as="geometry" />
        </mxCell>
        <mxCell id="pz1s1jrqG1b7pEJfz0OD-128" style="edgeStyle=orthogonalEdgeStyle;rounded=0;orthogonalLoop=1;jettySize=auto;html=1;exitX=0;exitY=0.5;exitDx=0;exitDy=0;entryX=0.5;entryY=0;entryDx=0;entryDy=0;fontSize=10;" edge="1" parent="77e6c97f196da883-1" source="pz1s1jrqG1b7pEJfz0OD-6" target="pz1s1jrqG1b7pEJfz0OD-8">
          <mxGeometry relative="1" as="geometry" />
        </mxCell>
        <mxCell id="pz1s1jrqG1b7pEJfz0OD-14" value="프로필" style="swimlane;html=1;childLayout=stackLayout;startSize=20;rounded=0;shadow=0;labelBackgroundColor=none;strokeWidth=1;fontFamily=Verdana;fontSize=8;align=center;" vertex="1" parent="1">
          <mxGeometry x="400" y="40" width="330" height="860" as="geometry" />
        </mxCell>
        <mxCell id="pz1s1jrqG1b7pEJfz0OD-15" value="회원" style="swimlane;html=1;startSize=20;" vertex="1" parent="pz1s1jrqG1b7pEJfz0OD-14">
          <mxGeometry y="20" width="170" height="840" as="geometry" />
        </mxCell>
        <mxCell id="pz1s1jrqG1b7pEJfz0OD-16" value="&lt;span style=&quot;font-size: 10px&quot;&gt;회원가입&lt;/span&gt;" style="ellipse;whiteSpace=wrap;html=1;" vertex="1" parent="pz1s1jrqG1b7pEJfz0OD-15">
          <mxGeometry x="30" y="30" width="100" height="60" as="geometry" />
        </mxCell>
        <mxCell id="pz1s1jrqG1b7pEJfz0OD-21" value="메인페이지에서&lt;br&gt;아이디링크 클릭" style="rounded=1;whiteSpace=wrap;html=1;shadow=0;labelBackgroundColor=none;strokeWidth=1;fontFamily=Verdana;fontSize=8;align=center;" vertex="1" parent="pz1s1jrqG1b7pEJfz0OD-15">
          <mxGeometry x="30" y="180" width="100" height="60" as="geometry" />
        </mxCell>
        <mxCell id="pz1s1jrqG1b7pEJfz0OD-22" value="자기소개란, 기술스택란 하단에 수정 클릭" style="rounded=1;whiteSpace=wrap;html=1;shadow=0;labelBackgroundColor=none;strokeWidth=1;fontFamily=Verdana;fontSize=8;align=center;" vertex="1" parent="pz1s1jrqG1b7pEJfz0OD-15">
          <mxGeometry x="30" y="480" width="100" height="60" as="geometry" />
        </mxCell>
        <mxCell id="pz1s1jrqG1b7pEJfz0OD-29" value="수정 사항 입력" style="rounded=1;whiteSpace=wrap;html=1;shadow=0;labelBackgroundColor=none;strokeWidth=1;fontFamily=Verdana;fontSize=8;align=center;" vertex="1" parent="pz1s1jrqG1b7pEJfz0OD-15">
          <mxGeometry x="30" y="620" width="100" height="60" as="geometry" />
        </mxCell>
        <mxCell id="pz1s1jrqG1b7pEJfz0OD-116" value="true" style="edgeStyle=orthogonalEdgeStyle;rounded=0;orthogonalLoop=1;jettySize=auto;html=1;exitX=0.5;exitY=1;exitDx=0;exitDy=0;entryX=0.5;entryY=0;entryDx=0;entryDy=0;fontSize=10;" edge="1" parent="pz1s1jrqG1b7pEJfz0OD-15" source="pz1s1jrqG1b7pEJfz0OD-110" target="pz1s1jrqG1b7pEJfz0OD-22">
          <mxGeometry relative="1" as="geometry" />
        </mxCell>
        <mxCell id="pz1s1jrqG1b7pEJfz0OD-110" value="프로필을 수정할 의향이 있는가?" style="rhombus;whiteSpace=wrap;html=1;fontSize=10;" vertex="1" parent="pz1s1jrqG1b7pEJfz0OD-15">
          <mxGeometry x="30" y="365" width="100" height="60" as="geometry" />
        </mxCell>
        <mxCell id="pz1s1jrqG1b7pEJfz0OD-19" value="웹" style="swimlane;html=1;startSize=20;" vertex="1" parent="pz1s1jrqG1b7pEJfz0OD-14">
          <mxGeometry x="170" y="20" width="160" height="840" as="geometry">
            <mxRectangle x="160" y="20" width="30" height="730" as="alternateBounds" />
          </mxGeometry>
        </mxCell>
        <mxCell id="pz1s1jrqG1b7pEJfz0OD-20" value="빈 프로필 생성" style="rounded=1;whiteSpace=wrap;html=1;shadow=0;labelBackgroundColor=none;strokeWidth=1;fontFamily=Verdana;fontSize=8;align=center;" vertex="1" parent="pz1s1jrqG1b7pEJfz0OD-19">
          <mxGeometry x="30" y="100" width="100" height="60" as="geometry" />
        </mxCell>
        <mxCell id="pz1s1jrqG1b7pEJfz0OD-23" value="프로필 표시" style="rounded=1;whiteSpace=wrap;html=1;shadow=0;labelBackgroundColor=none;strokeWidth=1;fontFamily=Verdana;fontSize=8;align=center;" vertex="1" parent="pz1s1jrqG1b7pEJfz0OD-19">
          <mxGeometry x="30" y="260" width="100" height="60" as="geometry" />
        </mxCell>
        <mxCell id="pz1s1jrqG1b7pEJfz0OD-28" value="자기소개란, 기술스택란을 기존데이터가 들어있는 입력란으로 변환&amp;nbsp;" style="rounded=1;whiteSpace=wrap;html=1;shadow=0;labelBackgroundColor=none;strokeWidth=1;fontFamily=Verdana;fontSize=8;align=center;" vertex="1" parent="pz1s1jrqG1b7pEJfz0OD-19">
          <mxGeometry x="30" y="480" width="100" height="60" as="geometry" />
        </mxCell>
        <mxCell id="pz1s1jrqG1b7pEJfz0OD-121" style="edgeStyle=orthogonalEdgeStyle;rounded=0;orthogonalLoop=1;jettySize=auto;html=1;exitX=1;exitY=0.5;exitDx=0;exitDy=0;entryX=1;entryY=0.5;entryDx=0;entryDy=0;fontSize=10;" edge="1" parent="pz1s1jrqG1b7pEJfz0OD-19" source="pz1s1jrqG1b7pEJfz0OD-31" target="pz1s1jrqG1b7pEJfz0OD-23">
          <mxGeometry relative="1" as="geometry" />
        </mxCell>
        <mxCell id="pz1s1jrqG1b7pEJfz0OD-31" value="입력된 데이터 덮어써서 프로필 저장" style="rounded=1;whiteSpace=wrap;html=1;shadow=0;labelBackgroundColor=none;strokeWidth=1;fontFamily=Verdana;fontSize=8;align=center;" vertex="1" parent="pz1s1jrqG1b7pEJfz0OD-19">
          <mxGeometry x="30" y="620" width="100" height="60" as="geometry" />
        </mxCell>
        <mxCell id="pz1s1jrqG1b7pEJfz0OD-151" value="end" style="ellipse;whiteSpace=wrap;html=1;fontSize=10;" vertex="1" parent="pz1s1jrqG1b7pEJfz0OD-19">
          <mxGeometry x="30" y="365" width="100" height="60" as="geometry" />
        </mxCell>
        <mxCell id="pz1s1jrqG1b7pEJfz0OD-112" style="edgeStyle=orthogonalEdgeStyle;rounded=0;orthogonalLoop=1;jettySize=auto;html=1;exitX=1;exitY=0.5;exitDx=0;exitDy=0;entryX=0.5;entryY=0;entryDx=0;entryDy=0;fontSize=10;" edge="1" parent="pz1s1jrqG1b7pEJfz0OD-14" source="pz1s1jrqG1b7pEJfz0OD-16" target="pz1s1jrqG1b7pEJfz0OD-20">
          <mxGeometry relative="1" as="geometry" />
        </mxCell>
        <mxCell id="pz1s1jrqG1b7pEJfz0OD-113" style="edgeStyle=orthogonalEdgeStyle;rounded=0;orthogonalLoop=1;jettySize=auto;html=1;exitX=0;exitY=0.5;exitDx=0;exitDy=0;entryX=0.5;entryY=0;entryDx=0;entryDy=0;fontSize=10;" edge="1" parent="pz1s1jrqG1b7pEJfz0OD-14" source="pz1s1jrqG1b7pEJfz0OD-20" target="pz1s1jrqG1b7pEJfz0OD-21">
          <mxGeometry relative="1" as="geometry" />
        </mxCell>
        <mxCell id="pz1s1jrqG1b7pEJfz0OD-114" style="edgeStyle=orthogonalEdgeStyle;rounded=0;orthogonalLoop=1;jettySize=auto;html=1;exitX=1;exitY=0.5;exitDx=0;exitDy=0;entryX=0.5;entryY=0;entryDx=0;entryDy=0;fontSize=10;" edge="1" parent="pz1s1jrqG1b7pEJfz0OD-14" source="pz1s1jrqG1b7pEJfz0OD-21" target="pz1s1jrqG1b7pEJfz0OD-23">
          <mxGeometry relative="1" as="geometry" />
        </mxCell>
        <mxCell id="pz1s1jrqG1b7pEJfz0OD-115" style="edgeStyle=orthogonalEdgeStyle;rounded=0;orthogonalLoop=1;jettySize=auto;html=1;exitX=0;exitY=0.5;exitDx=0;exitDy=0;entryX=0.5;entryY=0;entryDx=0;entryDy=0;fontSize=10;" edge="1" parent="pz1s1jrqG1b7pEJfz0OD-14" source="pz1s1jrqG1b7pEJfz0OD-23" target="pz1s1jrqG1b7pEJfz0OD-110">
          <mxGeometry relative="1" as="geometry" />
        </mxCell>
        <mxCell id="pz1s1jrqG1b7pEJfz0OD-117" style="edgeStyle=orthogonalEdgeStyle;rounded=0;orthogonalLoop=1;jettySize=auto;html=1;exitX=1;exitY=0.5;exitDx=0;exitDy=0;entryX=0;entryY=0.5;entryDx=0;entryDy=0;fontSize=10;" edge="1" parent="pz1s1jrqG1b7pEJfz0OD-14" source="pz1s1jrqG1b7pEJfz0OD-22" target="pz1s1jrqG1b7pEJfz0OD-28">
          <mxGeometry relative="1" as="geometry" />
        </mxCell>
        <mxCell id="pz1s1jrqG1b7pEJfz0OD-118" style="edgeStyle=orthogonalEdgeStyle;rounded=0;orthogonalLoop=1;jettySize=auto;html=1;exitX=0.5;exitY=1;exitDx=0;exitDy=0;entryX=0.5;entryY=0;entryDx=0;entryDy=0;fontSize=10;" edge="1" parent="pz1s1jrqG1b7pEJfz0OD-14" source="pz1s1jrqG1b7pEJfz0OD-28" target="pz1s1jrqG1b7pEJfz0OD-29">
          <mxGeometry relative="1" as="geometry" />
        </mxCell>
        <mxCell id="pz1s1jrqG1b7pEJfz0OD-119" style="edgeStyle=orthogonalEdgeStyle;rounded=0;orthogonalLoop=1;jettySize=auto;html=1;exitX=1;exitY=0.5;exitDx=0;exitDy=0;entryX=0;entryY=0.5;entryDx=0;entryDy=0;fontSize=10;" edge="1" parent="pz1s1jrqG1b7pEJfz0OD-14" source="pz1s1jrqG1b7pEJfz0OD-29" target="pz1s1jrqG1b7pEJfz0OD-31">
          <mxGeometry relative="1" as="geometry" />
        </mxCell>
        <mxCell id="pz1s1jrqG1b7pEJfz0OD-122" value="false" style="edgeStyle=orthogonalEdgeStyle;rounded=0;orthogonalLoop=1;jettySize=auto;html=1;exitX=1;exitY=0.5;exitDx=0;exitDy=0;fontSize=10;" edge="1" parent="pz1s1jrqG1b7pEJfz0OD-14" source="pz1s1jrqG1b7pEJfz0OD-110">
          <mxGeometry relative="1" as="geometry">
            <mxPoint x="200" y="415" as="targetPoint" />
          </mxGeometry>
        </mxCell>
        <mxCell id="pz1s1jrqG1b7pEJfz0OD-129" value="로그인" style="swimlane;html=1;childLayout=stackLayout;startSize=20;rounded=0;shadow=0;labelBackgroundColor=none;strokeWidth=1;fontFamily=Verdana;fontSize=8;align=center;" vertex="1" parent="1">
          <mxGeometry x="740" y="40" width="330" height="860" as="geometry" />
        </mxCell>
        <mxCell id="pz1s1jrqG1b7pEJfz0OD-130" value="회원" style="swimlane;html=1;startSize=20;" vertex="1" parent="pz1s1jrqG1b7pEJfz0OD-129">
          <mxGeometry y="20" width="170" height="840" as="geometry" />
        </mxCell>
        <mxCell id="pz1s1jrqG1b7pEJfz0OD-131" value="&lt;span style=&quot;font-size: 10px&quot;&gt;페이지 상단&lt;br&gt;로그인 링크 클릭&lt;/span&gt;" style="ellipse;whiteSpace=wrap;html=1;" vertex="1" parent="pz1s1jrqG1b7pEJfz0OD-130">
          <mxGeometry x="30" y="30" width="100" height="60" as="geometry" />
        </mxCell>
        <mxCell id="pz1s1jrqG1b7pEJfz0OD-132" value="아이디, 비밀번호&lt;br&gt;입력" style="rounded=1;whiteSpace=wrap;html=1;shadow=0;labelBackgroundColor=none;strokeWidth=1;fontFamily=Verdana;fontSize=8;align=center;" vertex="1" parent="pz1s1jrqG1b7pEJfz0OD-130">
          <mxGeometry x="30" y="180" width="100" height="60" as="geometry" />
        </mxCell>
        <mxCell id="pz1s1jrqG1b7pEJfz0OD-133" value="자기소개란, 기술스택란 하단에 수정 클릭" style="rounded=1;whiteSpace=wrap;html=1;shadow=0;labelBackgroundColor=none;strokeWidth=1;fontFamily=Verdana;fontSize=8;align=center;" vertex="1" parent="pz1s1jrqG1b7pEJfz0OD-130">
          <mxGeometry x="30" y="480" width="100" height="60" as="geometry" />
        </mxCell>
        <mxCell id="pz1s1jrqG1b7pEJfz0OD-134" value="수정 사항 입력" style="rounded=1;whiteSpace=wrap;html=1;shadow=0;labelBackgroundColor=none;strokeWidth=1;fontFamily=Verdana;fontSize=8;align=center;" vertex="1" parent="pz1s1jrqG1b7pEJfz0OD-130">
          <mxGeometry x="30" y="620" width="100" height="60" as="geometry" />
        </mxCell>
        <mxCell id="pz1s1jrqG1b7pEJfz0OD-137" value="웹" style="swimlane;html=1;startSize=20;" vertex="1" parent="pz1s1jrqG1b7pEJfz0OD-129">
          <mxGeometry x="170" y="20" width="160" height="840" as="geometry">
            <mxRectangle x="160" y="20" width="30" height="730" as="alternateBounds" />
          </mxGeometry>
        </mxCell>
        <mxCell id="pz1s1jrqG1b7pEJfz0OD-138" value="아이디, 비밀번호 입력란 표시" style="rounded=1;whiteSpace=wrap;html=1;shadow=0;labelBackgroundColor=none;strokeWidth=1;fontFamily=Verdana;fontSize=8;align=center;" vertex="1" parent="pz1s1jrqG1b7pEJfz0OD-137">
          <mxGeometry x="30" y="100" width="100" height="60" as="geometry" />
        </mxCell>
        <mxCell id="pz1s1jrqG1b7pEJfz0OD-140" value="자기소개란, 기술스택란을 기존데이터가 들어있는 입력란으로 변환&amp;nbsp;" style="rounded=1;whiteSpace=wrap;html=1;shadow=0;labelBackgroundColor=none;strokeWidth=1;fontFamily=Verdana;fontSize=8;align=center;" vertex="1" parent="pz1s1jrqG1b7pEJfz0OD-137">
          <mxGeometry x="30" y="480" width="100" height="60" as="geometry" />
        </mxCell>
        <mxCell id="pz1s1jrqG1b7pEJfz0OD-142" value="입력된 데이터 덮어써서 프로필 저장" style="rounded=1;whiteSpace=wrap;html=1;shadow=0;labelBackgroundColor=none;strokeWidth=1;fontFamily=Verdana;fontSize=8;align=center;" vertex="1" parent="pz1s1jrqG1b7pEJfz0OD-137">
          <mxGeometry x="30" y="620" width="100" height="60" as="geometry" />
        </mxCell>
        <mxCell id="pz1s1jrqG1b7pEJfz0OD-136" value="아이디와&lt;br&gt;비밃번호가 맞는가?" style="rhombus;whiteSpace=wrap;html=1;fontSize=10;" vertex="1" parent="pz1s1jrqG1b7pEJfz0OD-137">
          <mxGeometry x="30" y="260" width="100" height="60" as="geometry" />
        </mxCell>
        <mxCell id="pz1s1jrqG1b7pEJfz0OD-143" style="edgeStyle=orthogonalEdgeStyle;rounded=0;orthogonalLoop=1;jettySize=auto;html=1;exitX=1;exitY=0.5;exitDx=0;exitDy=0;entryX=0.5;entryY=0;entryDx=0;entryDy=0;fontSize=10;" edge="1" parent="pz1s1jrqG1b7pEJfz0OD-129" source="pz1s1jrqG1b7pEJfz0OD-131" target="pz1s1jrqG1b7pEJfz0OD-138">
          <mxGeometry relative="1" as="geometry" />
        </mxCell>
        <mxCell id="pz1s1jrqG1b7pEJfz0OD-144" style="edgeStyle=orthogonalEdgeStyle;rounded=0;orthogonalLoop=1;jettySize=auto;html=1;exitX=0;exitY=0.5;exitDx=0;exitDy=0;entryX=0.5;entryY=0;entryDx=0;entryDy=0;fontSize=10;" edge="1" parent="pz1s1jrqG1b7pEJfz0OD-129" source="pz1s1jrqG1b7pEJfz0OD-138" target="pz1s1jrqG1b7pEJfz0OD-132">
          <mxGeometry relative="1" as="geometry" />
        </mxCell>
        <mxCell id="pz1s1jrqG1b7pEJfz0OD-145" style="edgeStyle=orthogonalEdgeStyle;rounded=0;orthogonalLoop=1;jettySize=auto;html=1;exitX=1;exitY=0.5;exitDx=0;exitDy=0;entryX=0.5;entryY=0;entryDx=0;entryDy=0;fontSize=10;" edge="1" parent="pz1s1jrqG1b7pEJfz0OD-129" source="pz1s1jrqG1b7pEJfz0OD-132">
          <mxGeometry relative="1" as="geometry">
            <mxPoint x="250" y="280" as="targetPoint" />
          </mxGeometry>
        </mxCell>
        <mxCell id="pz1s1jrqG1b7pEJfz0OD-147" style="edgeStyle=orthogonalEdgeStyle;rounded=0;orthogonalLoop=1;jettySize=auto;html=1;exitX=1;exitY=0.5;exitDx=0;exitDy=0;entryX=0;entryY=0.5;entryDx=0;entryDy=0;fontSize=10;" edge="1" parent="pz1s1jrqG1b7pEJfz0OD-129" source="pz1s1jrqG1b7pEJfz0OD-133" target="pz1s1jrqG1b7pEJfz0OD-140">
          <mxGeometry relative="1" as="geometry" />
        </mxCell>
        <mxCell id="pz1s1jrqG1b7pEJfz0OD-148" style="edgeStyle=orthogonalEdgeStyle;rounded=0;orthogonalLoop=1;jettySize=auto;html=1;exitX=0.5;exitY=1;exitDx=0;exitDy=0;entryX=0.5;entryY=0;entryDx=0;entryDy=0;fontSize=10;" edge="1" parent="pz1s1jrqG1b7pEJfz0OD-129" source="pz1s1jrqG1b7pEJfz0OD-140" target="pz1s1jrqG1b7pEJfz0OD-134">
          <mxGeometry relative="1" as="geometry" />
        </mxCell>
        <mxCell id="pz1s1jrqG1b7pEJfz0OD-149" style="edgeStyle=orthogonalEdgeStyle;rounded=0;orthogonalLoop=1;jettySize=auto;html=1;exitX=1;exitY=0.5;exitDx=0;exitDy=0;entryX=0;entryY=0.5;entryDx=0;entryDy=0;fontSize=10;" edge="1" parent="pz1s1jrqG1b7pEJfz0OD-129" source="pz1s1jrqG1b7pEJfz0OD-134" target="pz1s1jrqG1b7pEJfz0OD-142">
          <mxGeometry relative="1" as="geometry" />
        </mxCell>
        <mxCell id="pz1s1jrqG1b7pEJfz0OD-135" value="true" style="edgeStyle=orthogonalEdgeStyle;rounded=0;orthogonalLoop=1;jettySize=auto;html=1;exitX=0.5;exitY=1;exitDx=0;exitDy=0;fontSize=10;" edge="1" parent="pz1s1jrqG1b7pEJfz0OD-129" source="pz1s1jrqG1b7pEJfz0OD-136">
          <mxGeometry relative="1" as="geometry">
            <mxPoint x="250" y="420" as="targetPoint" />
          </mxGeometry>
        </mxCell>
        <mxCell id="pz1s1jrqG1b7pEJfz0OD-141" value="false" style="edgeStyle=orthogonalEdgeStyle;rounded=0;orthogonalLoop=1;jettySize=auto;html=1;exitX=0;exitY=0.5;exitDx=0;exitDy=0;entryX=0.5;entryY=0;entryDx=0;entryDy=0;fontSize=10;" edge="1" parent="pz1s1jrqG1b7pEJfz0OD-129" source="pz1s1jrqG1b7pEJfz0OD-136" target="pz1s1jrqG1b7pEJfz0OD-133">
          <mxGeometry relative="1" as="geometry">
            <mxPoint x="300" y="310" as="targetPoint" />
          </mxGeometry>
        </mxCell>
      </root>
    </mxGraphModel>
  </diagram>
</mxfile>
